<?xml version="1.0" encoding="iso-8859-1"?>
<!-- Generator: Adobe Illustrator 19.0.0, SVG Export Plug-In . SVG Version: 6.00 Build 0)  -->
<svg version="1.1" id="Capa_1" xmlns="http://www.w3.org/2000/svg" xmlns:xlink="http://www.w3.org/1999/xlink" x="0px" y="0px"
	 viewBox="0 0 512 512" style="enable-background:new 0 0 512 512;" xml:space="preserve">
<g>
	<g>
		<g>
			<path d="M170.529,326.322l0.005,0.023C170.529,326.322,170.534,326.345,170.529,326.322z"/>
			<path d="M499.716,144.611c-10.584-13.141-26.331-20.678-43.204-20.678H156.866l-10.258-46.672
				c-5.548-25.243-28.333-43.564-54.178-43.564H14.991C6.712,33.697,0,40.409,0,48.688s6.712,14.991,14.991,14.991H92.43
				c11.876,0,22.346,8.419,24.895,20.018l53.204,242.625c5.519,25.29,28.311,43.646,54.197,43.646h202.312
				c25.885,0,48.678-18.356,54.197-43.646l29.476-135.091C514.307,174.745,510.3,157.754,499.716,144.611z M180.757,232.548
				l-17.157-78.633h56.333l9.469,78.633H180.757z M224.726,339.985c-11.895,0-22.368-8.434-24.904-20.055l-12.524-57.399h45.714
				l9.328,77.454H224.726z M310.891,339.985h-38.351l-9.328-77.454h47.679V339.985z M310.892,232.548h-51.29l-9.468-78.633h60.758
				V232.548z M378.145,339.985h-37.273v-77.454h0.001h46.6L378.145,339.985z M391.083,232.548h-50.21v-78.633h59.68L391.083,232.548
				z M451.941,319.93c-2.536,11.621-13.009,20.055-24.903,20.055h-18.693l9.328-77.454h46.792L451.941,319.93z M481.416,184.839
				l-10.41,47.71h-49.724l9.469-78.633h25.762c7.752,0,14.988,3.463,19.851,9.501C481.228,169.456,483.069,177.263,481.416,184.839z
				"/>
		</g>
	</g>
</g>
<g>
	<g>
		<path d="M253.643,400.074c-21.568,0-39.115,17.547-39.115,39.115c0,21.568,17.547,39.115,39.115,39.115
			c21.568,0,39.115-17.547,39.115-39.115C292.758,417.62,275.212,400.074,253.643,400.074z M253.643,448.322
			c-5.036,0-9.133-4.098-9.133-9.133s4.098-9.133,9.133-9.133s9.133,4.098,9.133,9.133S258.679,448.322,253.643,448.322z"/>
	</g>
</g>
<g>
	<g>
		<path d="M397.121,400.074c-21.568,0-39.115,17.547-39.115,39.115c0,21.568,17.547,39.115,39.115,39.115
			c21.568,0,39.115-17.547,39.115-39.115C436.236,417.62,418.689,400.074,397.121,400.074z M397.121,448.322
			c-5.036,0-9.133-4.098-9.133-9.133s4.098-9.133,9.133-9.133s9.133,4.098,9.133,9.133S402.157,448.322,397.121,448.322z"/>
	</g>
</g>
<g>
</g>
<g>
</g>
<g>
</g>
<g>
</g>
<g>
</g>
<g>
</g>
<g>
</g>
<g>
</g>
<g>
</g>
<g>
</g>
<g>
</g>
<g>
</g>
<g>
</g>
<g>
</g>
<g>
</g>
</svg>
